<?xml version="1.0" encoding="utf-8"?>
<!-- Generator: Adobe Illustrator 22.0.0, SVG Export Plug-In . SVG Version: 6.00 Build 0)  -->
<svg version="1.1" id="Layer_1" xmlns="http://www.w3.org/2000/svg" xmlns:xlink="http://www.w3.org/1999/xlink" x="0px" y="0px"
	 viewBox="0 0 64 64" style="enable-background:new 0 0 64 64;" xml:space="preserve">
<g>
	<g>
		<path d="M20,40H8c-1.1,0-2,0.9-2,2v14c0,1.1,0.9,2,2,2h12c1.1,0,2-0.9,2-2V42C22,40.9,21.1,40,20,40z"/>
		<path d="M38,30H26c-1.1,0-2,0.9-2,2v24c0,1.1,0.9,2,2,2h12c1.1,0,2-0.9,2-2V32C40,30.9,39.1,30,38,30z"/>
		<path d="M56,46H44c-1.1,0-2,0.9-2,2v8c0,1.1,0.9,2,2,2h12c1.1,0,2-0.9,2-2v-8C58,46.9,57.1,46,56,46z"/>
		<path d="M46,12c0-3.3-2.7-6-6-6H24c-3.3,0-6,2.7-6,6s2.7,6,6,6h1.1c1.1,1.8,2.8,3.2,4.9,3.7V24h-2c-1.1,0-2,0.9-2,2s0.9,2,2,2h8
			c1.1,0,2-0.9,2-2s-0.9-2-2-2h-2v-2.3c2.1-0.5,3.9-1.9,4.9-3.7H40C43.3,18,46,15.3,46,12z M22,12c0-1.1,0.9-2,2-2v4
			C22.9,14,22,13.1,22,12z M40,14v-4c1.1,0,2,0.9,2,2S41.1,14,40,14z"/>
	</g>
</g>
</svg>
