<?xml version="1.0" encoding="utf-8"?>
<!-- Generator: Adobe Illustrator 22.0.0, SVG Export Plug-In . SVG Version: 6.00 Build 0)  -->
<svg version="1.1" id="Layer_1" xmlns="http://www.w3.org/2000/svg" xmlns:xlink="http://www.w3.org/1999/xlink" x="0px" y="0px"
	 viewBox="0 0 64 64" style="enable-background:new 0 0 64 64;" xml:space="preserve">
<path d="M13.8,31.2c2.9,0,5.2-2.3,5.2-5.2s-2.3-5.2-5.2-5.2S8.6,23.1,8.6,26S10.9,31.2,13.8,31.2z M50.2,31.2c2.9,0,5.2-2.3,5.2-5.2
	s-2.3-5.2-5.2-5.2c-2.9,0-5.2,2.3-5.2,5.2S47.3,31.2,50.2,31.2z M52.8,33.8h-5.2c-1.4,0-2.7,0.6-3.7,1.5c3.3,1.8,5.6,5,6.1,8.9h5.4
	c1.4,0,2.6-1.2,2.6-2.6V39C58,36.1,55.7,33.8,52.8,33.8z M32,33.8c5,0,9.1-4.1,9.1-9.1S37,15.6,32,15.6s-9.1,4.1-9.1,9.1
	S27,33.8,32,33.8z M38.2,36.4h-0.7c-1.7,0.8-3.6,1.3-5.6,1.3s-3.9-0.5-5.6-1.3h-0.7c-5.2,0-9.4,4.2-9.4,9.4v2.3
	c0,2.2,1.7,3.9,3.9,3.9h23.4c2.2,0,3.9-1.7,3.9-3.9v-2.3C47.6,40.6,43.4,36.4,38.2,36.4z M20.1,35.3c-0.9-0.9-2.2-1.5-3.7-1.5h-5.2
	C8.3,33.8,6,36.1,6,39v2.6c0,1.4,1.2,2.6,2.6,2.6H14C14.5,40.3,16.8,37.1,20.1,35.3L20.1,35.3z"/>
</svg>
