<?xml version="1.0" encoding="utf-8"?>
<!-- Generator: Adobe Illustrator 22.0.0, SVG Export Plug-In . SVG Version: 6.00 Build 0)  -->
<svg version="1.1" id="Layer_1" xmlns="http://www.w3.org/2000/svg" xmlns:xlink="http://www.w3.org/1999/xlink" x="0px" y="0px"
	 viewBox="0 0 473 25" style="enable-background:new 0 0 473 25;" xml:space="preserve">
<style type="text/css">
	.st0{enable-background:new    ;}
	.st1{fill:#FFFFFF;}
</style>
<g class="st0">
	<path class="st1" d="M62.8,4.7h3l1.8,10.6l2.9-10.6h2.9l2.5,12.7c1-2.5,1.5-4.8,1.5-7.1c0-1.8-0.3-3.6-0.9-5.5h3.2
		c0.5,1.4,0.7,2.8,0.7,4.2c0,1.5-0.3,3.1-1,4.7c-0.7,1.6-1.6,3.4-2.9,5.4h-3.2L71.1,7.8l-3,11.2h-3L62.8,4.7z"/>
	<path class="st1" d="M82,12.6c0-0.8,0.1-1.5,0.3-2.3s0.4-1.5,0.8-2.2c0.4-0.7,0.8-1.3,1.4-1.8c0.5-0.5,1.2-1,2-1.3s1.6-0.5,2.6-0.5
		s1.8,0.2,2.6,0.5c0.8,0.3,1.4,0.7,2,1.3s1,1.1,1.4,1.8s0.6,1.4,0.8,2.2s0.3,1.5,0.3,2.3c0,1-0.1,1.9-0.4,2.7
		c-0.3,0.8-0.6,1.4-1.1,1.9c-0.4,0.5-1,0.9-1.6,1.2S91.7,18.9,91,19s-1.3,0.2-2,0.2s-1.4-0.1-2-0.2s-1.3-0.3-1.9-0.6
		c-0.6-0.3-1.2-0.7-1.6-1.2c-0.4-0.5-0.8-1.1-1.1-1.9C82.1,14.5,82,13.6,82,12.6z M85.2,12.9c0,1.6,0.3,2.9,1,3.8
		c0.7,0.9,1.6,1.3,2.8,1.3s2.1-0.4,2.8-1.3c0.7-0.9,1-2.1,1-3.8c0-0.9-0.1-1.8-0.2-2.6c-0.1-0.8-0.4-1.6-0.6-2.3
		c-0.3-0.7-0.7-1.3-1.2-1.7C90.2,6,89.7,5.8,89,5.8S87.8,6,87.3,6.4c-0.5,0.4-0.9,1-1.2,1.7c-0.3,0.7-0.5,1.5-0.7,2.3
		C85.3,11.1,85.2,12,85.2,12.9z"/>
	<path class="st1" d="M98.1,4.7h6.8c0.4,0,0.7,0,1,0c0.3,0,0.6,0,1,0c0.4,0,0.7,0.1,1,0.1c0.3,0,0.6,0.1,0.9,0.2
		c0.4,0.1,0.6,0.2,0.9,0.3s0.5,0.3,0.7,0.4c0.3,0.2,0.4,0.4,0.6,0.6c0.1,0.2,0.3,0.5,0.4,0.8c0.1,0.3,0.1,0.7,0.1,1
		c0,0.8-0.3,1.6-1,2.4c-0.7,0.8-1.7,1.6-3.2,2.5L112,19h-3.7l-3.7-4.4c-0.6,0.4-1.4,0.8-2.4,1.3v-2.1c4-2.1,6-3.9,6-5.4
		c0-1.5-1.1-2.2-3.4-2.2H101V19h-3V4.7z"/>
	<path class="st1" d="M113.3,19V4.7h3v12.9h6.2V19H113.3z"/>
	<path class="st1" d="M124,19V4.7h5.6c1.1,0,2.1,0.1,3,0.4c0.9,0.3,1.6,0.6,2.2,1.1c0.6,0.4,1.1,1,1.5,1.6c0.4,0.6,0.7,1.2,0.8,1.9
		c0.2,0.7,0.3,1.4,0.3,2.1c0,1-0.2,2-0.5,2.8c-0.3,0.8-0.7,1.5-1.2,2.1s-1.1,1-1.8,1.4s-1.4,0.6-2.1,0.8c-0.7,0.1-1.5,0.2-2.3,0.2
		h-1.3v-1.4h1.3c0.7,0,1.4-0.1,1.9-0.3c0.5-0.2,1-0.5,1.5-1c0.4-0.4,0.8-1.1,1-1.9c0.2-0.8,0.3-1.8,0.3-2.9c0-0.6,0-1.1-0.1-1.6
		s-0.2-1-0.5-1.5c-0.2-0.5-0.5-0.9-0.9-1.2s-0.8-0.6-1.4-0.8c-0.6-0.2-1.2-0.3-2-0.3H127V19H124z"/>
	<path class="st1" d="M143.8,12.2c0-1,0.2-1.9,0.5-2.8c0.3-0.9,0.8-1.7,1.4-2.5s1.3-1.3,2.2-1.7c0.9-0.4,1.9-0.7,2.9-0.7
		s2,0.2,2.8,0.6c0.9,0.4,1.5,1,2,1.7l-1.2,0.8c-0.3-0.4-0.8-0.8-1.4-1.1C152.6,6.2,152,6,151.4,6c-0.7,0-1.3,0.1-1.8,0.4
		c-0.5,0.2-0.9,0.6-1.3,1c-0.3,0.4-0.6,0.9-0.8,1.4s-0.3,1.1-0.4,1.7s-0.1,1.2-0.1,1.8c0,0.9,0.1,1.8,0.3,2.5s0.5,1.3,0.9,1.7
		c0.4,0.4,0.8,0.7,1.3,0.9c0.5,0.2,1,0.3,1.6,0.3c1,0,1.8-0.2,2.5-0.6c0.7-0.4,1.2-0.9,1.5-1.4l1.1,0.8c-1,1.8-2.8,2.6-5.3,2.6
		c-0.7,0-1.4-0.1-2-0.2c-0.6-0.1-1.3-0.4-1.9-0.7s-1.2-0.8-1.7-1.3c-0.5-0.5-0.8-1.2-1.1-2C144,14.2,143.8,13.2,143.8,12.2z"/>
	<path class="st1" d="M157.4,13.7c0-0.6,0.1-1.7,0.4-3.2s0.5-2.8,0.8-4l0.4-1.8h2.3c-0.4,4.5-0.6,7.6-0.6,9.3c0,0.6,0.1,1.1,0.2,1.5
		c0.1,0.5,0.3,0.9,0.6,1.2c0.3,0.4,0.6,0.7,1.1,0.9c0.5,0.2,1,0.3,1.7,0.3s1.2-0.1,1.7-0.3c0.5-0.2,0.8-0.5,1.1-0.9
		c0.3-0.4,0.5-0.8,0.6-1.2c0.1-0.5,0.2-1,0.2-1.5c0-0.7,0-1.9-0.1-3.4c-0.1-1.5-0.2-2.9-0.3-4.1l-0.1-1.8h2.3c0.1,0.5,0.3,1.2,0.4,2
		s0.4,2,0.7,3.6s0.4,2.7,0.4,3.4c0,1-0.2,1.9-0.5,2.6c-0.3,0.7-0.8,1.3-1.4,1.7s-1.3,0.7-2.1,0.9c-0.8,0.2-1.8,0.3-2.8,0.3
		s-2-0.1-2.8-0.3c-0.8-0.2-1.5-0.5-2.1-0.9s-1.1-1-1.4-1.7C157.5,15.6,157.4,14.7,157.4,13.7z"/>
	<path class="st1" d="M173.1,19V4.7h6.7c0.5,0,0.9,0,1.2,0c0.3,0,0.7,0,1.2,0.1s0.9,0.1,1.2,0.2c0.3,0.1,0.7,0.2,1.1,0.4
		s0.7,0.4,0.9,0.6s0.4,0.6,0.6,0.9c0.2,0.4,0.2,0.8,0.2,1.3c0,0.5-0.1,0.9-0.3,1.4c-0.2,0.5-0.5,0.9-0.8,1.3
		c-0.3,0.4-0.8,0.8-1.3,1.2c-0.5,0.4-1,0.7-1.5,1s-1,0.6-1.6,0.9c-0.6,0.3-1.2,0.6-1.6,0.8c-0.4,0.2-0.9,0.4-1.5,0.7
		c-0.2,0.1-0.3,0.1-0.4,0.2v-2.1c1.1-0.6,2.1-1.1,2.7-1.5c0.7-0.4,1.3-0.8,1.7-1.2c0.5-0.4,0.8-0.8,1-1.2c0.2-0.4,0.3-0.8,0.3-1.3
		c0-0.3,0-0.6-0.1-0.9c-0.1-0.3-0.2-0.5-0.3-0.6s-0.3-0.3-0.5-0.4c-0.2-0.1-0.4-0.2-0.6-0.3c-0.2-0.1-0.4-0.1-0.6-0.1
		c-0.2,0-0.4,0-0.5-0.1s-0.3,0-0.4,0h-3.7V19H173.1z"/>
	<path class="st1" d="M192.2,17l0.7-1.3c0.1,0.1,0.1,0.1,0.3,0.2c0.1,0.1,0.4,0.2,0.7,0.5s0.8,0.4,1.2,0.6s0.9,0.3,1.6,0.5
		c0.6,0.1,1.3,0.2,1.9,0.2c1,0,1.7-0.2,2.2-0.5c0.5-0.4,0.8-0.8,0.8-1.4c0-0.6-0.2-1.1-0.7-1.5c-0.5-0.3-1.6-0.9-3.2-1.6
		c-0.4-0.2-0.8-0.3-1.1-0.5c-0.3-0.2-0.7-0.3-1-0.5c-0.4-0.2-0.7-0.4-1-0.7c-0.3-0.2-0.5-0.5-0.7-0.7s-0.4-0.6-0.5-0.9
		s-0.2-0.7-0.2-1c0-1.2,0.5-2.1,1.4-2.8c0.9-0.7,2.3-1.1,4-1.1c2,0,3.8,0.6,5.4,1.8l-0.7,1.3c-0.7-0.5-1.4-0.9-2.2-1.2
		c-0.8-0.3-1.7-0.5-2.6-0.5c-0.6,0-1.1,0.1-1.5,0.4s-0.5,0.7-0.5,1.2c0,0.5,0.3,0.9,0.8,1.3c0.5,0.4,1.4,0.9,2.7,1.3
		c1.8,0.7,3.1,1.4,3.9,2c0.8,0.7,1.2,1.5,1.2,2.6c0,0.6-0.1,1.1-0.4,1.6c-0.3,0.5-0.6,1-1.1,1.4s-1.1,0.7-1.9,0.9
		c-0.8,0.2-1.7,0.3-2.7,0.3c-0.8,0-1.6-0.1-2.3-0.2c-0.7-0.1-1.4-0.3-1.9-0.5c-0.5-0.2-0.9-0.4-1.3-0.6c-0.4-0.2-0.7-0.4-0.8-0.5
		L192.2,17z"/>
	<path class="st1" d="M205.2,4.7h3l1.8,10.6l2.9-10.6h2.9l2.5,12.7c1-2.5,1.5-4.8,1.5-7.1c0-1.8-0.3-3.6-0.9-5.5h3.2
		c0.5,1.4,0.7,2.8,0.7,4.2c0,1.5-0.3,3.1-1,4.7c-0.7,1.6-1.6,3.4-2.9,5.4h-3.2l-2.2-11.2l-3,11.2h-3L205.2,4.7z"/>
	<path class="st1" d="M224.6,19V4.7h10.5v1.4h-7.5v4.7h5.5v1h-5.5v5.7h7.5V19H224.6z"/>
	<path class="st1" d="M236.9,19V4.7h10.5v1.4h-7.5v4.7h5.5v1h-5.5v5.7h7.5V19H236.9z"/>
	<path class="st1" d="M249.1,19V4.7h6.7c0.5,0,0.9,0,1.2,0c0.3,0,0.7,0,1.2,0.1s0.9,0.1,1.2,0.2c0.3,0.1,0.7,0.2,1,0.4
		c0.4,0.2,0.7,0.4,0.9,0.6c0.2,0.2,0.4,0.6,0.6,0.9s0.2,0.8,0.2,1.3c0,0.5-0.1,0.9-0.3,1.4c-0.2,0.5-0.5,0.9-0.8,1.3
		c-0.3,0.4-0.8,0.8-1.3,1.2c-0.5,0.4-1,0.7-1.5,1c-0.5,0.3-1,0.6-1.6,0.9s-1.2,0.6-1.6,0.8c-0.4,0.2-0.9,0.4-1.5,0.7
		c-0.2,0.1-0.3,0.1-0.4,0.2v-2.1c1.1-0.6,2.1-1.1,2.7-1.5c0.7-0.4,1.3-0.8,1.7-1.2c0.5-0.4,0.8-0.8,1-1.2c0.2-0.4,0.3-0.8,0.3-1.3
		c0-0.3,0-0.6-0.1-0.9c-0.1-0.3-0.2-0.5-0.3-0.6s-0.3-0.3-0.5-0.4c-0.2-0.1-0.4-0.2-0.6-0.3c-0.2-0.1-0.4-0.1-0.6-0.1
		s-0.4,0-0.5-0.1c-0.1,0-0.3,0-0.4,0h-3.7V19H249.1z"/>
	<path class="st1" d="M262.6,17l0.7-1.3c0.1,0.1,0.1,0.1,0.3,0.2c0.1,0.1,0.4,0.2,0.7,0.5s0.8,0.4,1.2,0.6c0.4,0.2,0.9,0.3,1.6,0.5
		c0.6,0.1,1.3,0.2,1.9,0.2c1,0,1.7-0.2,2.2-0.5c0.5-0.4,0.8-0.8,0.8-1.4c0-0.6-0.2-1.1-0.7-1.5c-0.5-0.3-1.6-0.9-3.2-1.6
		c-0.4-0.2-0.8-0.3-1.1-0.5c-0.3-0.2-0.7-0.3-1-0.5c-0.4-0.2-0.7-0.4-1-0.7s-0.5-0.5-0.7-0.7c-0.2-0.3-0.4-0.6-0.5-0.9
		c-0.1-0.3-0.2-0.7-0.2-1c0-1.2,0.5-2.1,1.4-2.8c0.9-0.7,2.3-1.1,4-1.1c2,0,3.8,0.6,5.4,1.8l-0.7,1.3c-0.7-0.5-1.4-0.9-2.2-1.2
		S269.7,6,268.8,6c-0.6,0-1.1,0.1-1.5,0.4s-0.5,0.7-0.5,1.2c0,0.5,0.3,0.9,0.8,1.3c0.5,0.4,1.4,0.9,2.7,1.3c1.8,0.7,3.1,1.4,3.9,2
		c0.8,0.7,1.2,1.5,1.2,2.6c0,0.6-0.1,1.1-0.4,1.6c-0.3,0.5-0.6,1-1.1,1.4c-0.5,0.4-1.1,0.7-1.9,0.9c-0.8,0.2-1.7,0.3-2.7,0.3
		c-0.8,0-1.6-0.1-2.3-0.2s-1.4-0.3-1.9-0.5c-0.5-0.2-0.9-0.4-1.3-0.6c-0.4-0.2-0.7-0.4-0.8-0.5L262.6,17z"/>
	<path class="st1" d="M275.7,6.1V4.7h12v1.4h-4.4V19h-3.2V6.1H275.7z"/>
	<path class="st1" d="M286.5,17c0-0.7,0.2-1.6,0.6-2.6c0.4-1,0.9-2.1,1.5-3.1c0.6-1,1.3-2,1.9-2.9c0.7-1,1.3-1.8,1.8-2.4
		c0.5-0.6,0.9-1.1,1.1-1.3h2.9c0.6,2,1.4,4.4,2.5,7.2c1.1,2.8,2.1,5.2,3.1,7.1h-3.2c-1.3-2.3-2.9-6.6-5.1-12.7
		c-0.1,0.2-0.2,0.4-0.4,0.7s-0.5,0.9-1,1.7c-0.5,0.8-0.9,1.6-1.2,2.3c-0.4,0.7-0.7,1.5-1,2.3s-0.4,1.5-0.4,1.9
		c0,0.8,0.4,1.2,1.3,1.2c0.6,0,1.4-0.2,2.2-0.6c0.9-0.4,1.6-0.9,2.2-1.4l0.7,1.4c-0.6,0.4-1.1,0.8-1.5,1.1c-0.4,0.3-1,0.6-1.7,1
		c-0.7,0.4-1.4,0.7-2,0.9c-0.7,0.2-1.3,0.3-1.9,0.3c-0.8,0-1.4-0.2-1.8-0.5C286.7,18.2,286.5,17.7,286.5,17z"/>
	<path class="st1" d="M303.2,19V4.7h3v9.8c1.2-0.6,2.2-1.3,3.1-1.9s1.6-1.3,2.1-1.9c0.5-0.6,0.9-1.2,1.1-1.7c0.2-0.5,0.4-1,0.4-1.5
		c0-0.4-0.1-0.8-0.3-1.1s-0.4-0.6-0.7-0.7V4.4c0.4,0,0.8,0,1.2,0.1c0.4,0.1,0.8,0.2,1.1,0.4c0.4,0.2,0.7,0.4,1,0.6
		c0.3,0.3,0.5,0.6,0.7,0.9c0.2,0.4,0.3,0.8,0.3,1.3c0,0.9-0.3,1.8-1,2.7c-0.7,0.9-1.8,1.8-3.3,2.8l4.4,5.6h-3.6l-3.2-4.3
		c-1.2,0.7-2.3,1.2-3.2,1.6V19H303.2z"/>
	<path class="st1" d="M317.9,19V4.7h10.5v1.4h-7.5v4.7h5.5v1h-5.5v5.7h7.5V19H317.9z"/>
	<path class="st1" d="M334.8,19V4.7h6.9c1.6,0,2.9,0.3,3.8,0.9c0.9,0.6,1.4,1.4,1.4,2.5c0,1.9-1.1,3-3.3,3.2c1.1,0.1,2.1,0.4,2.8,1
		c0.7,0.6,1.1,1.5,1.1,2.5c0,0.7-0.1,1.3-0.4,1.8c-0.3,0.5-0.6,0.9-1,1.2c-0.4,0.3-0.9,0.5-1.4,0.7c-0.5,0.2-1,0.3-1.5,0.3
		c-0.5,0.1-1,0.1-1.5,0.1H334.8z M337.8,17.6h3.4c0.9,0,1.6-0.2,2.2-0.7s0.8-1.1,0.8-2.1c0-0.7-0.3-1.4-0.8-1.9
		c-0.5-0.5-1.3-0.8-2.2-0.8h-2.3v-1.4h2.5c1.6,0,2.4-0.8,2.4-2.3c0-1.6-0.8-2.4-2.4-2.4h-3.7V17.6z"/>
	<path class="st1" d="M349.2,12.6c0-0.8,0.1-1.5,0.3-2.3c0.2-0.8,0.4-1.5,0.8-2.2s0.8-1.3,1.4-1.8s1.2-1,2-1.3s1.6-0.5,2.6-0.5
		c0.9,0,1.8,0.2,2.6,0.5s1.4,0.7,2,1.3s1,1.1,1.4,1.8c0.4,0.7,0.6,1.4,0.8,2.2s0.3,1.5,0.3,2.3c0,1-0.1,1.9-0.4,2.7
		c-0.3,0.8-0.6,1.4-1.1,1.9c-0.4,0.5-1,0.9-1.6,1.2s-1.2,0.5-1.9,0.6c-0.6,0.1-1.3,0.2-2,0.2s-1.4-0.1-2-0.2
		c-0.6-0.1-1.3-0.3-1.9-0.6c-0.6-0.3-1.2-0.7-1.6-1.2c-0.4-0.5-0.8-1.1-1.1-1.9C349.3,14.5,349.2,13.6,349.2,12.6z M352.4,12.9
		c0,1.6,0.3,2.9,1,3.8c0.7,0.9,1.6,1.3,2.8,1.3c1.2,0,2.1-0.4,2.8-1.3c0.7-0.9,1-2.1,1-3.8c0-0.9-0.1-1.8-0.2-2.6
		c-0.1-0.8-0.4-1.6-0.6-2.3c-0.3-0.7-0.7-1.3-1.2-1.7c-0.5-0.4-1.1-0.6-1.7-0.6c-0.7,0-1.2,0.2-1.7,0.6c-0.5,0.4-0.9,1-1.2,1.7
		c-0.3,0.7-0.5,1.5-0.7,2.3C352.5,11.1,352.4,12,352.4,12.9z"/>
	<path class="st1" d="M364.5,17c0-0.7,0.2-1.6,0.6-2.6c0.4-1,0.9-2.1,1.5-3.1s1.3-2,1.9-2.9c0.7-1,1.3-1.8,1.8-2.4
		c0.5-0.6,0.9-1.1,1.1-1.3h2.9c0.6,2,1.4,4.4,2.5,7.2c1.1,2.8,2.1,5.2,3.1,7.1h-3.2c-1.3-2.3-2.9-6.6-5.1-12.7
		c-0.1,0.2-0.2,0.4-0.4,0.7s-0.5,0.9-1,1.7c-0.5,0.8-0.9,1.6-1.2,2.3s-0.7,1.5-1,2.3s-0.4,1.5-0.4,1.9c0,0.8,0.4,1.2,1.3,1.2
		c0.6,0,1.4-0.2,2.2-0.6c0.9-0.4,1.6-0.9,2.2-1.4l0.7,1.4c-0.6,0.4-1.1,0.8-1.5,1.1c-0.4,0.3-1,0.6-1.7,1c-0.7,0.4-1.4,0.7-2,0.9
		c-0.7,0.2-1.3,0.3-1.9,0.3c-0.8,0-1.4-0.2-1.8-0.5C364.8,18.2,364.5,17.7,364.5,17z"/>
	<path class="st1" d="M381.2,4.7h6.8c0.4,0,0.7,0,1,0s0.6,0,1,0s0.7,0.1,1,0.1s0.6,0.1,0.9,0.2s0.6,0.2,0.9,0.3s0.5,0.3,0.7,0.4
		s0.4,0.4,0.6,0.6c0.1,0.2,0.3,0.5,0.4,0.8s0.1,0.7,0.1,1c0,0.8-0.3,1.6-1,2.4s-1.7,1.6-3.2,2.5l4.7,5.7h-3.7l-3.7-4.4
		c-0.6,0.4-1.4,0.8-2.4,1.3v-2.1c4-2.1,6-3.9,6-5.4c0-1.5-1.1-2.2-3.4-2.2h-3.8V19h-3V4.7z"/>
	<path class="st1" d="M396.5,19V4.7h5.6c1.1,0,2.1,0.1,3,0.4c0.9,0.3,1.6,0.6,2.2,1.1c0.6,0.4,1.1,1,1.5,1.6
		c0.4,0.6,0.7,1.2,0.8,1.9c0.2,0.7,0.3,1.4,0.3,2.1c0,1-0.2,2-0.5,2.8c-0.3,0.8-0.7,1.5-1.2,2.1s-1.1,1-1.8,1.4
		c-0.7,0.4-1.4,0.6-2.1,0.8c-0.7,0.1-1.5,0.2-2.3,0.2h-1.3v-1.4h1.3c0.7,0,1.4-0.1,1.9-0.3c0.5-0.2,1-0.5,1.5-1
		c0.4-0.4,0.8-1.1,1-1.9s0.3-1.8,0.3-2.9c0-0.6,0-1.1-0.1-1.6c-0.1-0.5-0.2-1-0.5-1.5s-0.5-0.9-0.9-1.2s-0.8-0.6-1.4-0.8
		c-0.6-0.2-1.2-0.3-2-0.3h-2.3V19H396.5z"/>
</g>
</svg>
